# xmcd CD database file
#
# Track frame offsets:
#	150
#	14648
#	24538
#	35635
#	50173
#	61684
#	74473
#	87998
#	102543
#	116790
#	130242
#	137673
#
# Disc length: 1992 seconds
#
# Revision: 0
# Processed by: cddbd v1.5.1PL2 Copyright (c) Steve Scherf et al.
# Submitted via: CDex 1.51
#
DISCID=b207c60c
DTITLE=Various Artist - Velvet Martini Disc II
DYEAR=2005
DGENRE=Jazz
TTITLE0=Cab Calloway - Minnie The Moocher
TTITLE1=Dinah Washington - Love For Sale
TTITLE2=Doris Day - Makin' Whoopee
TTITLE3=Perry Como - Prisoner of Love
TTITLE4=Lena Horne - Old Devil Moon
TTITLE5=Louis Prima - Mean To Me
TTITLE6=Judy Garland - I'm Always Chasing Rainbows
TTITLE7=Louis Armstrong - Just A Gigolo
TTITLE8=Marlene Dietrich - Falling In Love Again
TTITLE9=Billie Holiday - All of Me
TTITLE10=Keely Smith - Fly Me To The Moon
TTITLE11=Vic Damone - The Song Is You (Live)
EXTD=YEAR: 2005
EXTT0=
EXTT1=
EXTT2=
EXTT3=
EXTT4=
EXTT5=
EXTT6=
EXTT7=
EXTT8=
EXTT9=
EXTT10=
EXTT11=
PLAYORDER=
